# Blender 4.2.1 LTS
# www.blender.org
mtllib БОДИК АКА.mtl
o Cube
v 0.317846 0.771914 -3.564268
v 0.465213 -0.771914 -3.564269
v 0.317846 0.771914 3.156786
v 0.465213 -0.771914 3.564269
v -0.317846 0.771914 -3.564268
v -0.465213 -0.771914 -3.564269
v -0.317846 0.771914 3.156786
v -0.465213 -0.771914 3.564269
v -0.465213 -0.771914 2.999436
v 0.317846 0.771914 2.999436
v -0.317846 0.771914 2.999436
v 0.465213 -0.771914 2.999436
v 0.465213 0.000000 -3.564269
v -0.465213 0.000000 3.564269
v 0.465213 0.000000 3.564269
v -0.465213 0.000000 -3.564269
v 0.465213 0.000000 2.999436
v -0.465213 0.000000 2.999436
v -0.465213 0.257305 3.470716
v -0.417997 0.514609 3.357199
v 0.417997 0.514609 -3.564268
v 0.465213 0.257305 -3.564269
v 0.417997 0.514609 3.357199
v 0.465213 0.257305 3.470716
v -0.417997 0.514609 -3.564268
v -0.465213 0.257305 -3.564269
v 0.417997 0.514609 2.999436
v 0.465213 0.257305 2.999436
v -0.417997 0.514609 2.999436
v -0.465213 0.257305 2.999436
v -0.317846 0.771914 -4.481154
v 0.317846 0.771914 -4.481154
v 0.465213 0.257305 -4.481154
v 0.465213 0.000000 -4.481154
v -0.465213 0.257305 -4.481154
v -0.465213 0.000000 -4.481154
v 0.417997 0.514609 -4.481154
v -0.417997 0.514609 -4.481154
v -0.317846 0.771914 -0.351797
v -0.317846 0.771914 -3.148226
v 0.465213 -0.771914 -0.351798
v 0.465213 -0.771914 -3.148227
v -0.465213 -0.771914 -3.148227
v -0.465213 -0.771914 -0.351798
v 0.317846 0.771914 -3.148226
v 0.317846 0.771914 -0.351797
v 0.465213 0.000000 -3.148227
v 0.465213 0.000000 -0.351798
v -0.465213 0.000000 -0.351798
v -0.465213 0.000000 -3.148227
v 0.465213 0.257305 -3.148227
v 0.465213 0.257305 -0.351798
v 0.417997 0.514609 -3.148226
v 0.417997 0.514609 -0.685907
v -0.465213 0.257305 -0.351798
v -0.465213 0.257305 -3.148227
v -0.417997 0.514609 -0.685907
v -0.417997 0.514609 -3.148226
v -0.465213 -0.771914 0.725514
v 0.317846 0.771914 0.725514
v 0.465213 0.000000 0.725514
v 0.465213 0.257305 0.725514
v 0.417997 0.514609 0.498809
v -0.317846 0.771914 0.725513
v 0.465213 -0.771914 0.725513
v -0.465213 0.000000 0.725513
v -0.465213 0.257305 0.725513
v -0.417997 0.514609 0.498809
v 0.284329 -0.771914 -3.564268
v -0.284329 -0.771914 -3.564268
v 0.194261 0.771914 3.156786
v -0.194261 0.771914 3.156786
v -0.284329 -0.771914 3.564268
v 0.284329 -0.771914 3.564268
v -0.194261 0.771914 -3.564268
v 0.194261 0.771914 -3.564268
v 0.284329 -0.771914 2.999436
v -0.284329 -0.771914 2.999436
v -0.194261 0.771914 2.999436
v 0.194261 0.771914 2.999436
v -0.284329 0.000000 -3.564268
v 0.284329 0.000000 -3.564268
v 0.284329 0.000000 3.564268
v -0.284329 0.000000 3.564268
v 0.284329 0.257305 3.470716
v -0.284329 0.257305 3.470716
v 0.255471 0.514609 3.357198
v -0.255471 0.514609 3.357198
v -0.194261 0.771914 -4.481153
v 0.194261 0.771914 -4.481153
v -0.284329 0.000000 -4.481154
v 0.284329 0.000000 -4.481154
v -0.284329 0.257305 -4.481154
v 0.284329 0.257305 -4.481154
v -0.255471 0.514609 -4.481153
v 0.255471 0.514609 -4.481153
v -0.194261 0.771914 -3.148226
v 0.194261 0.771914 -3.148226
v -0.194261 0.771914 -0.351797
v 0.194261 0.771914 -0.351797
v 0.284329 -0.771914 -2.845857
v -0.284329 -0.771914 -2.845857
v 0.284329 -0.771914 -0.654167
v -0.284329 -0.771914 -0.654167
v -0.194261 0.771914 0.725513
v 0.194261 0.771914 0.725513
v 0.284329 -0.771914 0.725513
v -0.284329 -0.771914 0.725513
v 0.284329 -0.557705 -2.845857
v -0.284329 -0.557705 -2.845857
v 0.284329 -0.557705 -0.654167
v -0.284329 -0.557705 -0.654167
vn -0.0000 1.0000 -0.0000
vn -0.0000 0.6145 0.7889
vn -0.9319 0.3627 -0.0000
vn -0.0000 -1.0000 -0.0000
vn 0.9319 0.3627 -0.0000
vn 0.9836 0.1805 -0.0000
vn -1.0000 -0.0000 -0.0000
vn 1.0000 -0.0000 -0.0000
vn -0.0000 -0.0000 -1.0000
vn -0.0000 -0.0000 1.0000
vn -0.9836 0.1805 -0.0000
vn -0.0000 0.3417 0.9398
vn -0.0000 0.4036 0.9149
vn -0.0000 -0.7923 -0.6102
vt 0.791667 0.730191
vt 0.875000 0.730191
vt 0.875000 0.750000
vt 0.791667 0.750000
vt 0.583333 0.916667
vt 0.625000 0.916667
vt 0.625000 1.000000
vt 0.583333 1.000000
vt 0.583333 0.233143
vt 0.625000 0.233143
vt 0.625000 0.250000
vt 0.583333 0.250000
vt 0.291667 0.730191
vt 0.375000 0.730191
vt 0.375000 0.750000
vt 0.291667 0.750000
vt 0.583333 0.730191
vt 0.625000 0.730191
vt 0.625000 0.750000
vt 0.583333 0.750000
vt 0.583333 0.500000
vt 0.541667 0.500000
vt 0.583333 0.637501
vt 0.625000 0.637501
vt 0.291667 0.637501
vt 0.375000 0.637501
vt 0.583333 0.000000
vt 0.625000 0.000000
vt 0.625000 0.019809
vt 0.583333 0.019809
vt 0.791667 0.637501
vt 0.875000 0.637501
vt 0.375000 0.000000
vt 0.500000 0.000000
vt 0.500000 0.019809
vt 0.375000 0.019809
vt 0.500000 0.637501
vt 0.500000 0.730191
vt 0.375000 0.416667
vt 0.500000 0.416667
vt 0.500000 0.500000
vt 0.375000 0.500000
vt 0.500000 0.750000
vt 0.375000 0.233143
vt 0.500000 0.233143
vt 0.500000 0.250000
vt 0.375000 0.250000
vt 0.375000 0.916667
vt 0.500000 0.916667
vt 0.500000 1.000000
vt 0.375000 1.000000
vt 0.541667 0.000000
vt 0.541667 0.019809
vt 0.541667 0.637501
vt 0.541667 0.730191
vt 0.500000 0.333333
vt 0.541667 0.250000
vt 0.541667 0.750000
vt 0.541667 0.233143
vt 0.541667 0.916667
vt 0.541667 1.000000
vt 0.583333 0.416667
vt 0.625000 0.416667
vt 0.625000 0.500000
vt 0.541667 0.416667
vt 0.708333 0.500000
vt 0.541667 0.112499
vt 0.583333 0.112499
vt 0.583333 0.156413
vt 0.541667 0.156413
vt 0.500000 0.112499
vt 0.500000 0.156413
vt 0.583333 0.516857
vt 0.541667 0.516857
vt 0.583333 0.593587
vt 0.500000 0.516857
vt 0.500000 0.593587
vt 0.375000 0.112499
vt 0.375000 0.156413
vt 0.375000 0.516857
vt 0.375000 0.593587
vt 0.791667 0.500000
vt 0.875000 0.500000
vt 0.875000 0.516857
vt 0.791667 0.516857
vt 0.875000 0.593587
vt 0.791667 0.593587
vt 0.291667 0.500000
vt 0.291667 0.516857
vt 0.291667 0.593587
vt 0.625000 0.516857
vt 0.625000 0.593587
vt 0.625000 0.112499
vt 0.625000 0.156413
vt 0.000000 0.000000
vt 0.541667 0.593587
vt 0.125000 0.593587
vt 0.208333 0.593587
vt 0.208333 0.637501
vt 0.125000 0.637501
vt 0.708333 0.593587
vt 0.708333 0.637501
vt 0.125000 0.516857
vt 0.208333 0.516857
vt 0.125000 0.500000
vt 0.208333 0.500000
vt 0.708333 0.516857
vt 0.583333 0.333333
vt 0.541667 0.333333
vt 0.625000 0.333333
vt 0.583333 0.833333
vt 0.541667 0.833333
vt 0.500000 0.833333
vt 0.375000 0.833333
vt 0.375000 0.333333
vt 0.708333 0.730191
vt 0.208333 0.730191
vt 0.125000 0.730191
vt 0.208333 0.750000
vt 0.125000 0.750000
vt 0.625000 0.833333
vt 0.708333 0.750000
s 0
usemtl Material
f 79/1/1 11/2/1 7/3/1 72/4/1
f 88/5/2 72/6/2 7/7/2 20/8/2
f 58/9/3 40/10/3 5/11/3 25/12/3
f 77/13/4 12/14/4 4/15/4 74/16/4
f 27/17/5 10/18/5 3/19/5 23/20/5
f 21/21/6 22/22/6 33/22/6 37/21/6
f 63/23/5 60/24/5 10/18/5 27/17/5
f 107/25/4 65/26/4 12/14/4 77/13/4
f 20/27/3 7/28/3 11/29/3 29/30/3
f 105/31/1 64/32/1 11/2/1 79/1/1
f 8/33/7 14/34/7 18/35/7 9/36/7
f 65/26/8 61/37/8 17/38/8 12/14/8
f 69/39/9 82/40/9 13/41/9 2/42/9
f 12/14/8 17/38/8 15/43/8 4/15/8
f 43/44/7 50/45/7 16/46/7 6/47/7
f 73/48/10 84/49/10 14/50/10 8/51/10
f 14/34/7 19/52/7 30/53/7 18/35/7
f 19/52/11 20/27/11 29/30/11 30/53/11
f 61/37/8 62/54/8 28/55/8 17/38/8
f 62/54/6 63/23/6 27/17/6 28/55/6
f 81/56/4 16/46/4 36/46/4 91/56/4
f 26/57/11 25/12/11 38/12/11 35/57/11
f 17/38/8 28/55/8 24/58/8 15/43/8
f 28/55/6 27/17/6 23/20/6 24/58/6
f 50/45/7 56/59/7 26/57/7 16/46/7
f 56/59/11 58/9/11 25/12/11 26/57/11
f 84/49/12 86/60/12 19/61/12 14/50/12
f 86/60/13 88/5/13 20/8/13 19/61/13
f 96/62/9 90/63/9 32/64/9 37/21/9
f 92/40/9 94/65/9 33/22/9 34/41/9
f 94/65/9 96/62/9 37/21/9 33/22/9
f 22/22/8 13/41/8 34/41/8 33/22/8
f 25/12/3 5/11/3 31/11/3 38/12/3
f 1/64/5 21/21/5 37/21/5 32/64/5
f 16/46/7 26/57/7 35/57/7 36/46/7
f 76/66/1 1/64/1 32/64/1 90/66/1
f 67/67/11 68/68/11 57/69/11 55/70/11
f 55/70/11 57/69/11 58/9/11 56/59/11
f 66/71/7 67/67/7 55/70/7 49/72/7
f 49/72/7 55/70/7 56/59/7 50/45/7
f 22/22/6 21/21/6 53/73/6 51/74/6
f 58/9/4 53/73/4 54/75/4 57/69/4
f 13/41/8 22/22/8 51/74/8 47/76/8
f 48/77/1 47/76/1 50/45/1 49/72/1
f 59/78/7 66/71/7 49/72/7 44/79/7
f 44/79/7 49/72/7 50/45/7 43/44/7
f 2/42/8 13/41/8 47/76/8 42/80/8
f 42/80/8 47/76/8 48/77/8 41/81/8
f 75/82/1 5/83/1 40/84/1 97/85/1
f 97/85/1 40/84/1 39/86/1 99/87/1
f 69/88/4 2/42/4 42/80/4 101/89/4
f 101/89/4 42/80/4 41/81/4 103/90/4
f 21/21/5 1/64/5 45/91/5 53/73/5
f 53/73/5 45/91/5 46/92/5 54/75/5
f 68/68/3 64/93/3 39/94/3 57/69/3
f 57/69/3 39/94/3 40/10/3 58/9/3
f 50/95/10 47/95/10 51/95/10 53/95/10 58/95/10 56/95/10
f 52/96/14 55/70/14 57/69/14 54/75/14
f 48/77/1 49/72/1 66/71/1 61/37/1
f 29/30/3 11/29/3 64/93/3 68/68/3
f 9/36/7 18/35/7 66/71/7 59/78/7
f 18/35/7 30/53/7 67/67/7 66/71/7
f 30/53/11 29/30/11 68/68/11 67/67/11
f 52/96/6 54/75/6 63/23/6 62/54/6
f 55/70/4 52/96/4 62/54/4 67/67/4
f 41/81/8 48/77/8 61/37/8 65/26/8
f 99/87/1 39/86/1 64/32/1 105/31/1
f 103/90/4 41/81/4 65/26/4 107/25/4
f 54/75/5 46/92/5 60/24/5 63/23/5
f 62/54/9 61/37/9 66/71/9 67/67/9
f 44/97/4 104/98/4 108/99/4 59/100/4
f 104/98/4 103/90/4 107/25/4 108/99/4
f 46/92/1 100/101/1 106/102/1 60/24/1
f 100/101/1 99/87/1 105/31/1 106/102/1
f 43/103/4 102/104/4 104/98/4 44/97/4
f 103/90/9 104/98/9 112/98/9 111/90/9
f 6/105/4 70/106/4 102/104/4 43/103/4
f 70/106/4 69/88/4 101/89/4 102/104/4
f 45/91/1 98/107/1 100/101/1 46/92/1
f 98/107/1 97/85/1 99/87/1 100/101/1
f 1/64/1 76/66/1 98/107/1 45/91/1
f 76/66/1 75/82/1 97/85/1 98/107/1
f 5/83/1 75/82/1 89/82/1 31/83/1
f 75/82/1 76/66/1 90/66/1 89/82/1
f 35/57/9 38/12/9 95/108/9 93/109/9
f 93/109/9 95/108/9 96/62/9 94/65/9
f 36/46/9 35/57/9 93/109/9 91/56/9
f 91/56/9 93/109/9 94/65/9 92/40/9
f 38/12/9 31/11/9 89/110/9 95/108/9
f 95/108/9 89/110/9 90/63/9 96/62/9
f 24/58/13 23/20/13 87/111/13 85/112/13
f 85/112/13 87/111/13 88/5/13 86/60/13
f 15/43/12 24/58/12 85/112/12 83/113/12
f 83/113/12 85/112/12 86/60/12 84/49/12
f 13/41/4 82/40/4 92/40/4 34/41/4
f 82/40/4 81/56/4 91/56/4 92/40/4
f 4/15/10 15/43/10 83/113/10 74/114/10
f 74/114/10 83/113/10 84/49/10 73/48/10
f 6/47/9 16/46/9 81/56/9 70/115/9
f 70/115/9 81/56/9 82/40/9 69/39/9
f 60/24/1 106/102/1 80/116/1 10/18/1
f 106/102/1 105/31/1 79/1/1 80/116/1
f 59/100/4 108/99/4 78/117/4 9/118/4
f 108/99/4 107/25/4 77/13/4 78/117/4
f 9/118/4 78/117/4 73/119/4 8/120/4
f 78/117/4 77/13/4 74/16/4 73/119/4
f 23/20/2 3/19/2 71/121/2 87/111/2
f 87/111/2 71/121/2 72/6/2 88/5/2
f 10/18/1 80/116/1 71/122/1 3/19/1
f 80/116/1 79/1/1 72/4/1 71/122/1
f 110/104/4 109/89/4 111/90/4 112/98/4
f 102/104/10 101/89/10 109/89/10 110/104/10
f 104/98/8 102/104/8 110/104/8 112/98/8
f 101/89/7 103/90/7 111/90/7 109/89/7
o Цилиндр
v 0.374732 -0.181429 1.541229
v 0.538239 -0.181429 1.541229
v 0.374732 -0.280091 1.588742
v 0.538239 -0.280091 1.588742
v 0.374732 -0.304458 1.695503
v 0.538239 -0.304458 1.695503
v 0.374732 -0.236182 1.781118
v 0.538239 -0.236182 1.781118
v 0.374732 -0.126676 1.781118
v 0.538239 -0.126676 1.781118
v 0.374732 -0.058400 1.695503
v 0.538239 -0.058400 1.695503
v 0.374732 -0.082767 1.588742
v 0.538239 -0.082767 1.588742
v 0.469584 -0.181429 1.541229
v 0.469584 -0.280091 1.588742
v 0.469584 -0.304458 1.695503
v 0.469584 -0.236182 1.781118
v 0.469584 -0.126676 1.781118
v 0.469584 -0.058400 1.695503
v 0.469584 -0.082767 1.588742
v 0.522928 -0.377702 1.510900
v 0.522928 -0.181429 1.508054
v 0.484895 -0.181429 1.508054
v 0.522928 -0.426177 1.723285
v 0.522928 -0.290352 1.893604
v 0.522928 -0.072506 1.893604
v 0.522928 0.047958 1.723285
v 0.522928 0.014844 1.510900
v 0.484895 -0.377702 1.510900
v 0.484895 -0.426177 1.723285
v 0.484895 -0.290352 1.893604
v 0.484895 -0.072506 1.893604
v 0.484895 0.047958 1.723285
v 0.484895 0.014844 1.510900
v 0.522928 -0.115256 0.847257
v 0.522928 0.012887 -0.353078
v 0.484895 0.012887 -0.353078
v 0.522928 0.253533 -0.347881
v 0.484895 -0.115256 0.847257
v 0.484895 0.253533 -0.347881
v 0.484895 0.275005 1.021456
v 0.484895 -0.070503 1.017616
v 0.484895 -0.266775 1.230402
v 0.522928 -0.266775 1.230402
v 0.522928 0.275005 1.021456
v 0.522928 -0.070503 1.017616
v 0.563537 -0.280091 1.588742
v 0.563537 -0.181429 1.541229
v 0.563537 -0.304458 1.695503
v 0.563537 -0.236182 1.781118
v 0.563537 -0.126676 1.781118
v 0.563537 -0.058400 1.695503
v 0.563537 -0.082767 1.588742
v 0.374732 -0.098277 1.568648
v 0.374732 -0.120965 1.552810
v 0.538239 -0.120965 1.552810
v 0.538239 -0.098277 1.568648
v 0.469584 -0.098277 1.568648
v 0.469584 -0.120965 1.552810
v 0.522928 -0.104552 1.508748
v 0.522928 -0.059418 1.509696
v 0.484895 -0.059418 1.509696
v 0.484895 -0.104552 1.508748
v 0.522928 0.036961 -0.351811
v 0.522928 0.092299 -0.350079
v 0.484895 0.092299 -0.350079
v 0.484895 0.036961 -0.351811
v 0.522928 -0.002934 1.018552
v 0.522928 0.076518 1.019832
v 0.484895 0.076518 1.019832
v 0.484895 -0.002934 1.018552
v 0.563537 -0.120965 1.552810
v 0.563537 -0.098278 1.568648
v 0.564364 0.036961 -0.351811
v 0.564364 0.092299 -0.350079
v 0.564364 -0.002934 1.018552
v 0.564364 0.076518 1.019832
v 0.484895 0.259586 0.038146
v 0.484895 -0.157971 0.955268
v 0.522928 0.259586 0.038146
v 0.484895 -0.010621 0.033331
v 0.522928 -0.157971 0.955268
v 0.522928 -0.010621 0.033331
v 0.522928 0.087850 0.036110
v 0.522928 0.025715 0.034505
v 0.484895 0.025715 0.034505
v 0.484895 0.087850 0.036110
v 0.564364 0.087850 0.036110
v 0.564364 0.025715 0.034505
v 0.681199 0.036961 -0.351811
v 0.681199 0.092299 -0.350079
v 0.681199 0.087850 0.036110
v 0.681199 0.025715 0.034505
vn -0.9909 -0.1315 -0.0300
vn -0.9909 -0.1054 0.0841
vn 0.9895 0.1423 -0.0256
vn -0.9909 -0.0000 0.1349
vn 0.9717 -0.0398 -0.2330
vn -0.0000 0.9749 -0.2225
vn 0.9909 -0.1054 0.0841
vn -0.9898 0.1148 0.0847
vn -1.0000 -0.0000 -0.0000
vn -0.0000 0.1881 -0.9821
vn -0.0000 0.7818 0.6235
vn -0.0000 -0.0000 1.0000
vn -0.0000 -0.7818 0.6235
vn -0.0000 -0.9749 -0.2225
vn -0.0000 -0.4339 -0.9010
vn -0.0000 -0.9299 -0.3677
vn -0.0000 0.8164 0.5774
vn -0.0000 0.9881 -0.1541
vn 0.9909 -0.0000 0.1349
vn -0.9717 -0.0398 -0.2330
vn 0.9909 -0.1315 -0.0300
vn 0.9315 0.0324 -0.3624
vn -0.9831 0.0422 -0.1780
vn 0.9898 0.1148 0.0847
vn -0.9895 0.1423 -0.0256
vn -0.0000 -0.9943 -0.1062
vn -0.0000 0.0525 -0.9986
vn -0.0000 0.9999 -0.0157
vn 1.0000 -0.0000 -0.0000
vn -0.0000 0.8830 0.4694
vn -0.0000 0.7916 -0.6110
vn -0.0000 0.5724 -0.8200
vn -0.0000 -0.0161 0.9999
vn -0.0000 0.0136 -0.9999
vn -0.0000 0.0313 -0.9995
vn -0.9315 0.0324 -0.3624
vn -0.9653 0.0627 -0.2533
vn 0.9831 0.0422 -0.1780
vn 0.9653 0.0627 -0.2533
vn -0.0000 0.9999 0.0115
vn -0.0000 -0.9996 -0.0291
vn -0.0000 -0.0258 0.9997
vt 0.714286 0.790055
vt 0.857143 0.790055
vt 0.571429 0.790055
vt 0.016017 0.196595
vt 0.062360 0.399638
vt 0.428571 0.790055
vt 0.250000 0.490000
vt 0.437640 0.399638
vt 0.483983 0.196595
vt 0.354132 0.033767
vt 0.285714 0.790055
vt 0.750000 0.490000
vt 0.937640 0.399638
vt 0.983983 0.196595
vt 0.854132 0.033767
vt 0.645868 0.033767
vt 0.516017 0.196595
vt 0.562360 0.399638
vt 0.641718 0.437854
vt 0.704265 0.467975
vt 0.034820 0.500000
vt 0.034820 0.790055
vt 0.000000 0.790055
vt 0.000000 0.500000
vt 0.285714 0.500000
vt 0.142857 0.790055
vt 0.142857 0.500000
vt 0.428571 0.500000
vt 0.571429 0.500000
vt 0.714286 0.500000
vt 0.857143 0.500000
vt 1.000000 0.500000
vt 1.000000 0.790055
vt 0.857143 1.000000
vt 0.879148 0.790055
vt 0.714286 1.000000
vt 0.571429 1.000000
vt 0.428571 1.000000
vt 0.285714 1.000000
vt 0.142857 1.000000
vt 0.082439 0.790055
vt 0.082439 0.790055
vt 0.145868 0.033767
vt 0.204265 0.467975
vt 0.082439 0.790055
vt 0.082439 0.790055
vt 1.000000 1.000000
vt 0.034820 0.790055
vt 0.034820 1.000000
vt 0.000000 1.000000
vt 0.394283 0.420517
vt 1.000000 0.790055
vt 0.204265 0.467975
vt 0.204265 0.467975
vt 0.204265 0.467975
vt 0.142857 0.790055
vt 0.141718 0.437854
vt 0.141718 0.437854
vt 0.034820 0.790055
vt 0.034820 0.790055
vt 0.141718 0.437854
vt 0.141718 0.437854
vt 0.062360 0.399638
vt 0.082439 1.000000
vt 0.034820 0.790055
vt 0.082439 0.500000
s 0
f 129/123/15 128/124/15 142/124/15 143/123/15
f 130/125/16 129/123/16 143/123/16 144/125/16
f 124/126/17 126/127/17 141/127/17 140/126/17
f 131/128/18 130/125/18 144/125/18 145/128/18
f 114/129/19 116/130/19 134/130/19 135/129/19
f 126/127/20 124/126/20 165/126/20 166/127/20
f 118/131/21 120/132/21 138/132/21 137/131/21
f 132/133/22 131/128/22 145/128/22 146/133/22
f 113/134/23 115/135/23 117/136/23 119/137/23 121/138/23 123/139/23 125/140/23 167/141/23 168/142/23
f 168/143/24 172/144/24 127/145/24 113/146/24
f 123/147/20 132/133/20 133/148/20 125/149/20
f 121/150/25 131/128/25 132/133/25 123/147/25
f 119/151/26 130/125/26 131/128/26 121/150/26
f 117/152/27 129/123/27 130/125/27 119/151/27
f 115/153/28 128/124/28 129/123/28 117/152/28
f 113/154/29 127/155/29 128/124/29 115/153/29
f 195/156/30 192/157/30 152/124/30 148/156/30
f 142/124/28 134/156/28 137/158/28 143/123/28
f 143/123/27 137/158/27 138/159/27 144/125/27
f 144/125/26 138/159/26 139/160/26 145/128/26
f 145/128/31 139/160/31 140/161/31 146/133/31
f 146/133/32 140/161/32 141/162/32 147/148/32
f 200/163/23 191/148/23 153/148/23 179/164/23
f 120/132/33 122/165/33 139/165/33 138/132/33
f 128/124/34 127/155/34 136/155/34 142/124/34
f 116/130/35 118/131/35 137/131/35 134/130/35
f 169/166/36 114/129/36 135/129/36 173/166/36
f 171/167/37 133/148/37 147/148/37 175/168/37
f 122/165/38 124/126/38 140/126/38 139/165/38
f 133/148/39 132/133/39 146/133/39 147/148/39
f 150/155/40 149/169/40 148/156/40 152/124/40
f 180/170/41 177/171/41 149/172/41 150/145/41
f 191/148/42 193/162/42 151/162/42 153/148/42
f 196/129/23 195/173/23 148/130/23 149/129/23
f 192/157/43 194/174/43 150/155/43 152/124/43
f 198/175/43 196/129/43 149/129/43 177/176/43
f 173/166/43 135/129/43 159/129/43 181/177/43
f 142/124/23 136/155/23 155/155/23 156/124/23
f 135/129/43 134/130/43 157/130/43 159/129/43
f 147/148/44 141/162/44 158/162/44 154/178/44
f 175/168/23 147/148/23 154/178/23 183/163/23
f 134/156/30 142/124/30 156/124/30 157/156/30
f 160/130/43 161/129/43 185/177/43 186/179/43 166/127/43 165/126/43 164/165/43 163/132/43 162/131/43
f 122/165/26 120/132/26 163/132/26 164/165/26
f 170/180/45 126/127/45 166/127/45 186/179/45
f 118/131/28 116/130/28 160/130/28 162/131/28
f 124/126/25 122/165/25 164/165/25 165/126/25
f 116/130/29 114/129/29 161/129/29 160/130/29
f 120/132/27 118/131/27 162/131/27 163/132/27
f 114/129/24 169/166/24 185/177/24 161/129/24
f 169/166/46 170/180/46 186/179/46 185/177/46
f 136/145/23 176/181/23 184/182/23 155/145/23
f 176/181/23 175/168/23 183/163/23 184/182/23
f 141/127/43 174/183/43 182/184/43 158/127/43
f 174/183/43 173/166/43 181/177/43 182/184/43
f 193/185/43 197/184/43 178/184/43 151/127/43
f 182/184/47 181/177/47 189/177/47 190/184/47
f 153/148/48 151/162/48 178/186/48 179/164/48
f 179/164/49 178/186/49 177/171/49 180/170/49
f 127/145/50 172/144/50 176/181/50 136/145/50
f 172/144/51 171/167/51 175/168/51 176/181/51
f 126/127/52 170/180/52 174/183/52 141/127/52
f 170/180/53 169/166/53 173/166/53 174/183/53
f 194/145/23 199/187/23 180/170/23 150/145/23
f 199/187/23 200/163/23 179/164/23 180/170/23
f 125/149/45 133/148/45 171/167/45 167/188/45
f 167/188/46 171/167/46 172/144/46 168/143/46
f 188/184/54 201/184/54 205/184/54 204/184/54
f 197/184/54 182/184/54 190/184/54 201/184/54
f 177/171/49 178/186/49 188/186/49 187/171/49
f 198/175/55 177/176/55 187/176/55 202/177/55
f 181/177/55 198/175/55 202/177/55 189/177/55
f 178/184/54 197/184/54 201/184/54 188/184/54
f 190/184/43 189/177/43 202/177/43 201/184/43
f 184/182/23 183/163/23 200/163/23 199/187/23
f 155/145/23 184/182/23 199/187/23 194/145/23
f 158/127/43 182/184/43 197/184/43 193/185/43
f 181/177/43 159/129/43 196/129/43 198/175/43
f 156/124/23 155/155/23 194/174/23 192/157/23
f 159/129/43 157/130/43 195/173/43 196/129/43
f 154/178/42 158/162/42 193/162/42 191/148/42
f 183/163/23 154/178/23 191/148/23 200/163/23
f 157/156/30 156/124/30 192/157/30 195/156/30
f 205/184/43 206/177/43 203/176/43 204/184/43
f 187/171/49 188/186/49 204/186/49 203/171/49
f 201/184/56 202/177/56 206/177/56 205/184/56
f 202/177/55 187/176/55 203/176/55 206/177/55
